<svg width="105" height="105" viewBox="0 0 105 105" fill="none" xmlns="http://www.w3.org/2000/svg">
<circle cx="52.5" cy="52.5" r="52.5" fill="#E0DEF2"/>
<path opacity="0.35" d="M53.109 89.994C47.607 89.9437 45.825 88.755 45.2377 88.3627C45.0217 88.2195 44.8102 88.0515 44.6137 87.8685C41.172 84.6488 29.9452 73.509 29.9452 65.2875C29.9452 64.3755 29.9977 63.5452 30.045 62.8125C30.189 60.5677 30.3255 58.4497 28.9965 52.9762C27.2565 45.8077 25.9582 36.834 32.6325 20.9828C33.0472 19.9988 33.786 19.1752 34.7115 18.6465C35.2087 18.3217 35.7832 18.1125 36.3922 18.0555C36.5745 18.027 36.7582 18.0098 36.942 18.003C36.9892 18.0015 37.0762 18 37.1235 18C38.9677 18 38.9625 19.272 39.798 20.9145L42.3075 25.8368C44.8687 24.846 49.4602 24.0592 52.7085 23.9895C52.8405 23.9775 52.9732 23.9708 53.1075 23.9708C53.1637 23.9708 53.2185 23.9715 53.2732 23.9738C53.3287 23.9722 53.3827 23.9708 53.4382 23.9708C53.574 23.9708 53.706 23.9775 53.838 23.9895C57.0855 24.0592 60.006 24.5947 62.5665 25.5848L65.079 20.6595C65.9167 19.0185 67.5907 18.0007 69.4462 18.0007C69.492 18.0007 69.5542 18.0015 69.5992 18.003C69.6652 18.0053 69.7312 18.009 69.7965 18.0143C69.9052 18.0045 70.0155 18 70.1265 18C70.2 18 70.2727 18.0022 70.347 18.0067C71.8312 18.0937 73.1197 19.0492 73.6387 20.4345C73.7422 20.6092 73.8322 20.7893 73.9102 20.9738C80.5882 36.8348 79.2907 45.8085 77.5507 52.9762C76.2217 58.4505 76.3575 60.5693 76.5015 62.8118C76.5487 63.546 76.602 64.3755 76.602 65.2883C76.602 73.509 65.3752 84.6495 61.935 87.8678C61.737 88.0522 61.5255 88.2202 61.3027 88.368C60.7222 88.7557 58.941 89.9437 53.4435 89.9948C53.4045 89.9955 53.3655 89.9963 53.3272 89.9963C53.3265 89.9963 53.1472 89.9955 53.109 89.994Z" fill="black"/>
<path d="M51.609 88.494C46.107 88.4437 44.325 87.255 43.7377 86.8627C43.5217 86.7195 43.3102 86.5515 43.1137 86.3685C39.672 83.1488 28.4452 72.009 28.4452 63.7875C28.4452 62.8755 28.4977 62.0452 28.545 61.3125C28.689 59.0677 28.8255 56.9497 27.4965 51.4762C25.7565 44.3077 24.4582 35.334 31.1325 19.4828C31.5472 18.4988 32.286 17.6752 33.2115 17.1465C33.7087 16.8217 34.2832 16.6125 34.8922 16.5555C35.0745 16.527 35.2582 16.5097 35.442 16.503C35.4892 16.5015 35.5762 16.5 35.6235 16.5C37.4677 16.5 39.1335 17.5208 39.969 19.1632L42.4785 24.0855C45.0397 23.0948 47.961 22.5592 51.2092 22.4895C51.3412 22.4775 51.474 22.4708 51.6082 22.4708C51.6645 22.4708 51.7192 22.4715 51.774 22.4738C51.8295 22.4722 51.8835 22.4708 51.939 22.4708C52.0747 22.4708 52.2067 22.4775 52.3387 22.4895C55.5862 22.5592 58.5067 23.0947 61.0672 24.0848L63.5797 19.1595C64.4175 17.5185 66.0915 16.5007 67.947 16.5007C67.9927 16.5007 68.055 16.5015 68.1 16.503C68.166 16.5052 68.232 16.509 68.2972 16.5143C68.4052 16.5045 68.5155 16.5 68.6265 16.5C68.7 16.5 68.7727 16.5023 68.847 16.5068C70.3312 16.5938 71.6197 17.5492 72.1387 18.9345C72.2422 19.1092 72.3322 19.2893 72.4102 19.4738C79.0882 35.3348 77.7907 44.3085 76.0507 51.4762C74.7217 56.9505 74.8575 59.0693 75.0015 61.3118C75.0487 62.046 75.102 62.8755 75.102 63.7883C75.102 72.009 63.8752 83.1495 60.435 86.3678C60.237 86.5522 60.0255 86.7202 59.8027 86.868C59.2222 87.2557 57.441 88.4437 51.9435 88.4948C51.9045 88.4955 51.8655 88.4963 51.8272 88.4963C51.8265 88.4963 51.6472 88.4955 51.609 88.494Z" fill="#F2F2F2"/>
<path d="M39.9382 75.75L46.4422 81.5857C48.0697 82.671 49.9822 83.25 51.9382 83.25C53.8942 83.25 55.8067 83.088 57.4342 82.0027L63.9382 75.75L66.9382 53.25H36.9382L39.9382 75.75Z" fill="#FFC7A3"/>
<path opacity="0.35" d="M54 76.5H49.5L47.25 74.25H56.25L54 76.5Z" fill="#40396E"/>
<path opacity="0.35" d="M49.2953 69.75H54.2047L58.5 72H45L49.2953 69.75Z" fill="#40396E"/>
<path d="M68.6273 20.25C68.6273 20.25 66.1898 25.3973 63.6593 31.2548C60.9503 28.653 57.1283 27 51.9383 27C46.5968 27 42.7868 28.5652 40.1266 31.0425C37.6291 25.2727 35.2501 20.25 35.2501 20.25C30.7501 33.75 31.1333 40.5225 31.5001 43.5C32.2561 49.638 35.0648 58.4895 34.5188 61.7677L34.5091 61.8247C34.1401 64.0402 34.5466 66.315 35.6611 68.265L39.9383 75.75L38.4383 60L51.8896 66.3285L65.2501 60L63.7501 75.75L68.4353 68.9325C69.5498 66.9825 69.7373 64.0402 69.3683 61.8247L69.3586 61.7677C68.8126 58.4895 71.6213 49.638 72.3773 43.5C72.7441 40.5225 73.1273 33.75 68.6273 20.25Z" fill="#707CC0"/>
<path d="M51.9383 27.3457C46.8158 27.3457 43.0966 28.6245 40.4543 30.825" stroke="#40396E" stroke-width="3" stroke-miterlimit="10" stroke-linecap="round" stroke-linejoin="round"/>
<path d="M51.8257 83.6205C49.5225 83.6123 47.2425 83.3407 46.4422 82.8067C46.4422 82.8067 33.3202 70.5375 33.3202 63.7875C33.3202 60.4643 34.1797 58.3395 32.2335 50.3258C30.5707 43.4805 29.625 35.625 35.625 21.375L40.3732 30.6907" stroke="#40396E" stroke-width="3" stroke-miterlimit="10" stroke-linecap="round" stroke-linejoin="round"/>
<path d="M51.6082 27.3457C56.7307 27.3457 60.4499 28.6245 63.0922 30.825" stroke="#40396E" stroke-width="3" stroke-miterlimit="10" stroke-linecap="round" stroke-linejoin="round"/>
<path d="M51.72 83.6205C54.0232 83.6123 56.3032 83.3407 57.1035 82.8067C57.1035 82.8067 70.2255 70.5375 70.2255 63.7875C70.2255 60.4643 69.366 58.3395 71.3122 50.3258C72.9757 43.4805 73.9215 35.625 67.9215 21.375L63.174 30.6818" stroke="#40396E" stroke-width="3" stroke-miterlimit="10" stroke-linecap="round" stroke-linejoin="round"/>
<path d="M38.0625 49.5L47.25 53.4375C47.25 53.4375 45.9375 54.75 43.3125 54.75C38.7188 54.75 38.0625 49.5 38.0625 49.5Z" fill="#F2F2F2"/>
<path d="M66 49.5L56.8125 53.4375C56.8125 53.4375 58.125 54.75 60.75 54.75C65.3438 54.75 66 49.5 66 49.5Z" fill="#F2F2F2"/>
<path opacity="0.35" d="M51.8888 66.3284L51.7306 51.7161C46.3838 48.6824 43.2046 45.3284 43.2046 39.8676C43.2046 28.8959 53.3993 28.4721 53.3993 28.4721C51.0293 28.2636 47.1226 28.7429 45.6466 29.2656L44.8478 28.5674L41.3588 30.3876L40.0696 30.6149L35.9746 22.3484L34.6096 23.6376L31.8031 33.5729L30.8933 41.9916L33.4718 55.6431L32.8651 64.5929L39.8423 73.9214L38.4383 59.9999L38.4398 59.9661L38.0626 49.4999L47.2493 53.4404L43.7618 62.5199L51.8888 66.3284Z" fill="#40396E"/>
</svg>
