<svg width="106" height="105" viewBox="0 0 106 105" fill="none" xmlns="http://www.w3.org/2000/svg">
<circle cx="53" cy="52.5" r="52.5" fill="#E0DEF2"/>
<path d="M88.6571 49.9345L90.5 47.8148L71.4641 31.7807C71.4641 31.7807 69.442 30.5282 68.7213 33.3148C68.0006 36.1013 66.9385 41.5536 68.3456 42.6041C69.7526 43.6546 70.1774 42.9847 70.7786 41.1498C71.0706 40.2615 72.253 35.254 73.3495 37.9599C74.4459 40.6657 78.8351 50.4796 78.8351 50.4796L88.6571 49.9345Z" fill="black"/>
<path d="M78.8348 50.4796L88.6568 49.9345L90.4997 47.8147C83.5022 43.0716 77.853 41.976 74.9746 41.7559C76.6464 45.5853 78.8348 50.4796 78.8348 50.4796Z" fill="black"/>
<path d="M17.3421 49.9345L15.5 47.8148L34.5359 31.7807C34.5359 31.7807 36.559 30.5282 37.2788 33.3148C37.9986 36.1013 39.0616 41.5536 37.6554 42.6041C36.2492 43.6546 35.824 42.9847 35.2219 41.1498C34.9304 40.2615 33.7479 35.254 32.6506 37.9599C31.5533 40.6657 27.1654 50.4796 27.1654 50.4796L17.3421 49.9345Z" fill="black"/>
<path d="M27.1645 50.4796L17.3421 49.9345L15.5 47.8147C22.4975 43.0716 28.1472 41.976 31.0251 41.7559C29.3537 45.5853 27.1645 50.4796 27.1645 50.4796Z" fill="black"/>
<path d="M15.5 47.8147L18.5754 70.2892H46.5485C46.5485 70.2892 48.9147 69.987 49.6853 65.7457C50.2112 62.858 51.4289 61.7139 52.8173 61.6221C52.8779 61.6181 52.9385 61.6181 52.9955 61.6181C53.0526 61.6181 53.1163 61.6181 53.1765 61.6221C54.5653 61.7139 55.783 62.858 56.308 65.7457C57.0791 69.987 59.4448 70.2892 59.4448 70.2892H87.4184L90.4938 47.8147H15.5Z" fill="white"/>
<path d="M43.4585 60.6564C43.4585 64.0023 41.2109 66.7152 38.4395 66.7152H27.6477C24.8768 66.7152 22.6287 64.0023 22.6287 60.6564V57.6292C22.6287 54.2824 24.8768 51.5703 27.6477 51.5703H38.4395C41.2109 51.5703 43.4585 54.2824 43.4585 57.6292V60.6564Z" fill="#6CF4F4"/>
<path d="M82.7968 60.6564C82.7968 64.0023 80.5491 66.7152 77.7782 66.7152H66.9864C64.215 66.7152 61.9678 64.0023 61.9678 60.6564V57.6292C61.9678 54.2824 64.215 51.5703 66.9864 51.5703H77.7782C80.5491 51.5703 82.7968 54.2824 82.7968 57.6292V60.6564Z" fill="#ED4D55"/>
</svg>
