<svg width="105" height="105" viewBox="0 0 105 105" fill="none" xmlns="http://www.w3.org/2000/svg">
<circle cx="52.5" cy="52.5" r="52.5" fill="#E0DEF2"/>
<path d="M30.0432 67.4002C23.4249 66.8753 18 58.792 18 58.792C18 68.7649 27.1138 72.4391 31.2366 71.0744C34.9256 69.9196 30.0432 67.4002 30.0432 67.4002Z" fill="#947151"/>
<path d="M59.555 77.688C61.3995 79.7875 69.8622 77.688 71.2727 75.2735C76.806 65.3006 71.2727 58.897 71.2727 58.897L59.555 62.3612C59.555 62.4662 57.1681 75.0635 59.555 77.688Z" fill="#EABC92"/>
<path d="M51.6348 82.307C53.6962 84.6165 61.1825 84.5115 63.3525 82.307C66.6074 79.1576 66.3904 64.7757 66.6074 57.8471L52.8283 56.6924C52.8283 56.6924 49.0309 79.2626 51.6348 82.307Z" fill="#F5D1AC"/>
<path d="M43.7133 77.688C41.8689 79.7875 33.4061 77.688 31.9956 75.2735C26.4623 65.3006 31.9956 58.897 31.9956 58.897L43.7133 62.3612C43.7133 62.4662 46.2088 75.0635 43.7133 77.688Z" fill="#EABC92"/>
<path d="M51.7424 82.307C49.6809 84.6165 42.1946 84.5115 40.0247 82.307C36.7698 79.1576 36.9868 64.7757 36.7698 57.8471L50.5489 56.6924C50.5489 56.6924 54.3463 79.2626 51.7424 82.307Z" fill="#F5D1AC"/>
<path d="M51.6339 82.4123C51.3084 80.2077 51.2 78.0032 51.2 75.7987C51.2 73.5941 51.3084 71.3896 51.6339 69.1851C51.9594 71.3896 52.0679 73.5941 52.0679 75.7987C52.0679 78.0032 51.9594 80.2077 51.6339 82.4123Z" fill="#423223"/>
<path d="M51.6341 67.7152C40.5674 67.7152 34.9255 63.5161 34.9255 63.5161C34.9255 63.5161 38.6144 73.0691 51.6341 73.0691C64.6538 73.0691 68.3427 63.5161 68.3427 63.5161C68.3427 63.5161 62.7008 67.7152 51.6341 67.7152Z" fill="#3E4347"/>
<path d="M48.488 70.3398C48.488 68.8701 49.139 67.7153 49.8985 67.6103C49.6815 67.4004 49.356 67.2954 49.139 67.2954C48.1626 67.2954 47.4031 68.6601 47.4031 70.3398C47.4031 72.0194 48.1626 73.3841 49.139 73.3841C49.4645 73.3841 49.6815 73.1742 49.8985 72.9642C49.139 72.9642 48.488 71.8095 48.488 70.3398Z" fill="white"/>
<path d="M35.9021 64.0409C29.2837 60.0517 26.6798 44.41 28.8497 37.3765C30.4772 32.1276 36.4445 24.3593 41.8694 22.2597C46.4263 20.5801 56.9505 20.5801 61.5074 22.2597C66.9322 24.2543 73.0081 32.0227 74.527 37.3765C76.697 44.515 75.0695 60.0517 68.4512 64.0409C54.5636 72.4391 49.7897 72.4391 35.9021 64.0409Z" fill="#F5D1AC"/>
<path d="M25.4864 38.9513C28.9583 46.1947 29.8262 46.5097 33.1897 37.9015C34.9256 33.2825 33.7321 30.553 35.7936 27.6137C36.9871 25.934 39.591 23.3096 39.591 23.3096C39.591 23.3096 18.7595 25.3041 25.4864 38.9513Z" fill="#423223"/>
<path d="M34.2746 22.9946C29.0667 26.144 17.8915 24.8842 24.5099 38.5314C27.9818 45.7748 28.8498 46.0898 32.2132 37.4816C33.9491 32.8626 32.7557 30.1331 34.8171 27.1938C36.0106 25.5141 39.591 23.3096 39.591 23.3096C39.591 23.3096 37.9635 20.7901 34.2746 22.9946Z" fill="#947151"/>
<path d="M77.8905 38.9513C74.4186 46.1947 73.5506 46.5097 70.1872 37.9015C68.4513 33.2825 69.6447 30.553 67.5833 27.6137C66.3898 25.934 63.7859 23.3096 63.7859 23.3096C63.7859 23.3096 84.6173 25.3041 77.8905 38.9513Z" fill="#423223"/>
<path d="M69.1021 22.9946C74.31 26.144 85.5937 24.8842 78.9754 38.5314C75.5035 45.7748 74.6355 46.0898 71.2721 37.4816C69.5361 32.8626 70.7296 30.1331 68.6682 27.1938C67.4747 25.5141 63.8943 23.3096 63.8943 23.3096C63.8943 23.3096 65.4132 20.7901 69.1021 22.9946Z" fill="#947151"/>
<path d="M37.7463 39.0562C41.0012 39.0562 43.6051 41.4706 43.6051 44.515C43.6051 47.5593 41.0012 49.9738 37.7463 49.9738C34.4914 49.9738 31.8875 47.5593 31.8875 44.515C31.8875 41.4706 34.5999 39.0562 37.7463 39.0562Z" fill="white"/>
<path d="M36.3357 48.6092C38.7326 48.6092 40.6756 46.7762 40.6756 44.515C40.6756 42.2539 38.7326 40.4209 36.3357 40.4209C33.9389 40.4209 31.9958 42.2539 31.9958 44.515C31.9958 46.7762 33.9389 48.6092 36.3357 48.6092Z" fill="#3E4347"/>
<path d="M71.3808 44.515C71.3808 47.5593 68.7768 49.9738 65.5219 49.9738C62.267 49.9738 59.6631 47.5593 59.6631 44.515C59.6631 41.4706 62.267 39.0562 65.5219 39.0562C68.7768 39.0562 71.3808 41.4706 71.3808 44.515Z" fill="white"/>
<path d="M67.0411 48.6092C69.4379 48.6092 71.3809 46.7762 71.3809 44.515C71.3809 42.2539 69.4379 40.4209 67.0411 40.4209C64.6442 40.4209 62.7012 42.2539 62.7012 44.515C62.7012 46.7762 64.6442 48.6092 67.0411 48.6092Z" fill="#3E4347"/>
<path d="M41.6521 60.9965L46.209 65.4055C48.9214 68.03 54.5633 68.03 57.2757 65.4055L61.8326 60.9965L57.0587 56.4824H46.3175L41.6521 60.9965Z" fill="#7D644B"/>
<path d="M51.6338 52.5981C51.6338 52.5981 46.86 59.0018 47.511 62.0461C48.2704 66.4552 55.1058 66.4552 55.8652 62.0461C56.4077 59.0018 51.6338 52.5981 51.6338 52.5981Z" fill="#F15A61"/>
<path d="M51.6344 63.7259L52.7194 57.5322H50.658L51.6344 63.7259Z" fill="#BA454B"/>
<path d="M46.752 54.3831H56.5167V58.5822H46.752V54.3831Z" fill="#423223"/>
<path d="M67.1492 55.3277L60.2054 48.5042C55.974 44.4101 47.4028 44.4101 43.2799 48.5042L36.336 55.3277C34.3831 57.2173 34.3831 60.3667 36.336 62.3613C38.289 64.2509 41.5439 64.2509 43.4969 62.3613L50.4407 55.5377C51.0917 54.9078 52.3936 54.9078 53.0446 55.5377L59.9884 62.3613C61.9414 64.2509 65.1963 64.2509 67.1492 62.3613C69.1022 60.4717 69.1022 57.3223 67.1492 55.3277Z" fill="#947151"/>
<path d="M45.884 49.029C45.884 46.6145 48.488 46.1946 51.6344 46.1946C54.7808 46.1946 57.3847 46.6145 57.3847 49.029C57.3847 50.9186 52.8279 52.5982 51.6344 52.5982C50.5494 52.5982 45.884 50.9186 45.884 49.029Z" fill="#3E4347"/>
<path d="M44.1476 51.1284L43.1711 52.0732L44.1476 53.018L45.1241 52.0732L44.1476 51.1284Z" fill="#3E4347"/>
<path d="M41.8691 53.6479L40.8926 54.5928L41.8691 55.5376L42.8455 54.5928L41.8691 53.6479Z" fill="#3E4347"/>
<path d="M44.9071 54.5928L43.9307 55.5376L44.9071 56.4824L45.8836 55.5376L44.9071 54.5928Z" fill="#3E4347"/>
<path d="M59.2289 51.1284L60.2054 52.0732L59.2289 53.018L58.2524 52.0732L59.2289 51.1284Z" fill="#3E4347"/>
<path d="M61.5075 53.6479L62.484 54.5928L61.5075 55.5376L60.531 54.5928L61.5075 53.6479Z" fill="#3E4347"/>
<path d="M58.4694 54.5928L59.4459 55.5376L58.4694 56.4824L57.4929 55.5376L58.4694 54.5928Z" fill="#3E4347"/>
</svg>
