<svg width="105" height="105" viewBox="0 0 105 105" fill="none" xmlns="http://www.w3.org/2000/svg">
<circle cx="52.5" cy="52.5" r="52.5" fill="#E0DEF2"/>
<path d="M75.2388 49.5474L56.4391 36.747C48.2974 31.9465 36.5669 30.758 29.4023 34.1895C20.9924 38.2165 22.3898 45.7498 30.0829 51.0195L47.3976 62.8789C55.0907 68.1486 67.788 70.2704 76.1978 66.2433C83.7466 62.6572 83.3289 55.1703 75.2388 49.5474Z" fill="#F8F7C5"/>
<path d="M47.9956 42.4704C46.3868 41.5397 45.9537 41.2741 45.5103 41.0034L47.9672 39.5855C48.5911 39.2245 48.8567 38.7373 48.7613 38.2655V36.1798C48.9186 34.8984 46.111 33.6403 44.0021 34.8572C40.3979 36.9377 41.3621 36.3809 39.5058 37.4534L34.9812 34.8417C32.813 33.5888 29.8662 34.8856 30.2168 36.2159C30.2168 36.8217 30.2143 38.0592 30.2168 38.4124C30.2194 38.8249 30.4927 39.24 31.0418 39.5545L33.5555 41.006C33.5091 41.0318 30.8098 42.5658 30.5391 42.9061C30.3097 43.1923 30.2297 43.4656 30.2607 43.7208C30.2632 44.2751 30.2658 45.6312 30.2607 46.0024C30.2375 47.5287 33.4369 48.0959 35.0379 47.1703L39.5368 44.5741L44.0614 47.1858C46.0723 48.3459 48.5705 47.3869 48.8051 46.2525C48.8206 44.5896 48.818 43.9631 48.8154 43.744C48.9005 43.3186 48.6762 42.8649 47.9956 42.4704ZM61.9304 51.682C61.8917 52.2054 61.4715 54.6649 61.3709 55.1367C61.2832 55.5466 60.9275 55.9282 60.319 56.2195C58.9629 56.8692 57.1196 56.7197 55.8795 55.8689C55.302 55.4745 55.0158 55.0362 55.0107 54.6185C55.0055 54.1364 55.4206 51.4449 55.6165 50.9266C55.6475 50.8441 55.73 50.7668 55.7867 50.6869C55.4386 51.2515 55.614 51.8986 56.4467 52.4684C57.6893 53.3191 59.5301 53.4687 60.8862 52.819C61.5179 52.5174 61.8633 52.1126 61.9304 51.682Z" fill="#225B49"/>
<path d="M71.1962 60.5559C69.8401 61.2056 67.9967 61.0561 66.7566 60.2053C65.9239 59.6355 65.7486 58.9884 66.0966 58.4238C66.0425 58.5037 65.96 58.5785 65.9265 58.6636C65.7305 59.1818 65.3154 61.8734 65.3206 62.3555C65.3258 62.7757 65.6119 63.2114 66.1894 63.6059C67.4321 64.4566 69.2729 64.6062 70.629 63.9565C71.2374 63.6652 71.5958 63.2836 71.6808 62.8737C71.7814 62.4019 72.2016 59.9423 72.2403 59.419C72.1758 59.847 71.8304 60.2517 71.1962 60.5559Z" fill="#F05A28"/>
<path d="M71.3896 58.0732C70.0773 57.1735 68.27 57.0884 66.95 57.72C65.7589 58.2898 65.4934 59.3417 66.7541 60.2053C67.9968 61.0561 69.8375 61.2056 71.1936 60.556C72.5317 59.9166 72.5858 58.8931 71.3896 58.0732Z" fill="#FF7344"/>
<path d="M44.0563 44.7469L39.5317 42.1353L35.0329 44.7315C32.9549 45.9303 29.1831 44.5948 30.5366 42.9062C30.8099 42.5659 35.6129 39.8717 35.5665 39.8459L31.0394 37.1157C28.4587 35.6255 32.3104 33.3001 34.9813 34.8418L39.5059 37.4534C41.3647 36.3809 40.3979 36.9378 44.0022 34.8573C46.6602 33.3233 50.432 35.7209 47.9673 37.1466L43.4711 39.8021C43.6 39.7273 43.6 39.8769 43.4711 39.8021C46.1136 41.3283 44.9612 40.7199 47.9957 42.473C50.5454 43.9451 46.6654 46.2526 44.0563 44.7469ZM61.0771 50.3389C59.7648 49.4391 57.9576 49.3541 56.6376 49.9857C55.4465 50.5555 55.1809 51.6073 56.4416 52.471C57.6843 53.3218 59.5251 53.4713 60.8811 52.8216C61.6417 52.4581 61.9124 51.9734 61.9304 51.6486C61.9562 51.2103 61.6778 50.7488 61.0771 50.3389Z" fill="#569080"/>
<path d="M71.1962 52.8216C69.8401 53.4712 67.9967 53.3217 66.7566 52.4709C65.9239 51.9012 65.7486 51.2541 66.0966 50.6895C66.0425 50.7694 65.96 50.8441 65.9265 50.9292C65.7305 51.4474 65.3154 54.139 65.3206 54.6211C65.3258 55.0413 65.6119 55.477 66.1894 55.8715C67.4321 56.7223 69.2729 56.8718 70.629 56.2221C71.2374 55.9308 71.5958 55.5492 71.6808 55.1393C71.7814 54.6675 72.2016 52.208 72.2403 51.6846C72.1758 52.1126 71.8304 52.5173 71.1962 52.8216Z" fill="#569080"/>
<path d="M71.3896 50.3388C70.0773 49.4391 68.27 49.354 66.95 49.9856C65.7589 50.5554 65.4934 51.6073 66.7541 52.471C67.9968 53.3217 69.8375 53.4713 71.1936 52.8216C71.9542 52.4581 72.2249 51.9734 72.2429 51.6485C72.2687 51.2103 71.9903 50.7488 71.3896 50.3388Z" fill="#7BD6C4"/>
<path d="M60.8837 60.5559C59.5276 61.2056 57.6842 61.0561 56.4441 60.2053C55.6114 59.6355 55.4361 58.9884 55.7841 58.4238C55.73 58.5037 55.6475 58.5785 55.614 58.6636C55.418 59.1818 55.0029 61.8734 55.0081 62.3555C55.0133 62.7757 55.2994 63.2114 55.8769 63.6059C57.1196 64.4566 58.9604 64.6062 60.3165 63.9565C60.9249 63.6652 61.2833 63.2836 61.3683 62.8737C61.4689 62.4019 61.8891 59.9423 61.9278 59.419C61.8633 59.847 61.5179 60.2517 60.8837 60.5559Z" fill="#F28103"/>
<path d="M61.0771 58.0732C59.7648 57.1735 57.9575 57.0884 56.6375 57.72C55.4464 58.2898 55.1809 59.3417 56.4416 60.2053C57.6843 61.0561 59.525 61.2056 60.8811 60.556C61.6417 60.1924 61.9124 59.7078 61.9304 59.3829C61.9562 58.9446 61.6778 58.4831 61.0771 58.0732Z" fill="#F29227"/>
<path d="M81.5886 59.334C81.4752 62.0901 79.6911 64.5831 76.1978 66.2434C67.7879 70.273 55.0907 68.1512 47.3975 62.879L30.0828 51.0196C26.1357 48.3151 23.8464 45.0151 23.6891 41.8982C23.6891 41.9033 23.6891 41.9059 23.6891 41.9111C23.2921 44.7419 23.1168 49.2613 22.9853 50.4034C22.6037 53.7318 24.741 57.483 29.3378 60.6334L46.6525 72.4928C54.3275 77.7496 67.0248 79.892 75.4527 75.8573C78.6238 74.3387 80.3924 72.1551 80.792 69.7213C81.0318 68.226 81.6093 62.4587 81.6093 59.909C81.6093 59.7337 81.6041 59.5403 81.5886 59.334Z" fill="#AD9A74"/>
</svg>
