<svg width="1422" height="218" viewBox="0 0 1422 218" fill="none" xmlns="http://www.w3.org/2000/svg">
<path d="M82.3018 48.0215C82.3018 55.6904 85.6389 62.98 85.9388 70.7792C86.9535 97.1595 87.9132 123.447 87.9132 149.86C87.9132 166.924 87.4565 184.133 84.5879 200.987C83.9583 204.685 85.7462 210.903 82.3018 212.625" stroke="black" stroke-width="3" stroke-linecap="round"/>
<path d="M0 49.8919C8.78862 49.8919 16.687 44.3185 24.3165 40.5394C40.6858 32.4313 56.4811 23.8522 72.5337 15.1838C80.3781 10.9478 91.3527 5 100.591 5C109.609 5 113.521 19.8372 116.386 25.9911C131.274 57.9629 141.181 92.4621 151.51 126.167C152.53 129.495 157.476 135.152 152.549 136.35C135.954 140.387 116.636 137.805 99.7598 137.805C76.7712 137.805 51.2887 140.921 28.577 136.662C19.4389 134.949 17.4398 129.183 16.9384 120.659C16.2005 108.115 20.6525 99.134 29.0966 90.1076C34.3391 84.5035 41.6016 74.6424 49.4642 72.5457C57.2174 70.4782 62.347 76.6048 66.6105 82.106C78.294 97.1816 90.1076 112.53 99.4481 129.18C112.671 152.752 127.374 175.115 141.742 197.973C144.678 202.644 145.899 206.267 145.899 199.532" stroke="black" stroke-width="3" stroke-linecap="round"/>
<path d="M166.474 208.884C166.474 193.593 167.917 178.428 168.76 163.161C170.569 130.403 170.107 97.6993 174.891 65.1676C177.269 49.0022 184.826 59.031 190.063 69.1164C207.098 101.924 226.776 136.025 237.553 171.474C238.127 173.361 244.863 189.997 242.333 191.634C239.006 193.787 229.469 192.087 225.914 192.05C194.06 191.718 165.002 174.171 135.091 165.031C110.253 157.442 152.383 154.609 159.616 153.704C194.506 149.343 231.215 150.296 265.61 143.417" stroke="black" stroke-width="3" stroke-linecap="round"/>
<path d="M263.74 190.179C257.347 190.179 248.243 153.415 245.866 146.95C237.31 123.676 231.941 99.1061 231.941 74.2084C231.941 61.7771 236.096 64.8559 248.152 64.8559C272.677 64.8559 297.201 64.8559 321.725 64.8559" stroke="black" stroke-width="3" stroke-linecap="round"/>
<path d="M291.797 192.05C294.573 180.945 299.594 171.97 304.059 161.498C314.007 138.172 321.271 113.793 331.078 90.4195C337.135 75.9826 345.855 62.3983 350.51 47.3981C353.585 37.4896 354.538 43.25 356.433 51.3469C365.468 89.9508 369.833 129.76 372.229 169.292C372.756 177.997 375.036 187.464 374.099 196.206C373.254 204.09 351.178 196.96 347.496 196.206C312.711 189.091 285.749 178.306 258.96 155.056C251.69 148.746 257.08 148.841 264.259 148.093C282.921 146.149 301.75 142.307 320.478 141.65C325.15 141.486 361.902 135.857 364.747 141.546" stroke="black" stroke-width="3" stroke-linecap="round"/>
<path d="M387.193 55.5034C385.382 75.4254 385.041 95.2446 385.322 115.359C385.516 129.214 388.193 142.748 389.479 156.51C390.091 163.06 389.858 171.019 392.804 177.086C395.276 182.174 400.818 182.697 405.898 182.697C419.615 182.697 433.332 182.697 447.049 182.697" stroke="black" stroke-width="3" stroke-linecap="round"/>
<path d="M387.193 130.323C403.299 130.323 419.567 128.453 435.826 128.453" stroke="black" stroke-width="3" stroke-linecap="round"/>
<path d="M375.97 70.4673C386.555 70.4673 396.769 66.7263 407.768 66.7263C414.003 66.7263 420.238 66.7263 426.473 66.7263" stroke="black" stroke-width="3" stroke-linecap="round"/>
<path d="M432.084 23.7051C436.841 28.4618 438.264 34.3442 439.151 40.9552C441.675 59.7694 443.307 77.5081 443.307 96.5505C443.307 122.15 445.178 147.531 445.178 173.137C445.178 176.03 442.97 195.147 445.594 197.246C447.281 198.596 467.139 193.92 470.534 193.92C480.163 193.92 489.793 193.92 499.422 193.92" stroke="black" stroke-width="3" stroke-linecap="round"/>
<path d="M510.646 216.366C510.646 184.854 519.806 151.592 525.817 120.867C531.191 93.4019 533.452 59.504 548.471 34.9279C551.526 29.9285 558.845 52.6653 559.278 54.0485C565.785 74.8347 569.23 96.2755 574.242 117.438C575.511 122.793 591.177 197.24 583.595 197.661C562.587 198.828 546.545 187.194 528.311 177.917C514.163 170.718 500.373 162.798 486.641 154.847C481.128 151.656 474.175 147.352 470.949 141.546C466.319 133.211 534.806 124.939 544.107 123.776C557.77 122.069 571.707 122.841 585.465 122.841" stroke="black" stroke-width="3" stroke-linecap="round"/>
<path d="M1117 192C1134.87 192 1152.92 197.611 1171.24 197.611" stroke="black" stroke-width="3" stroke-linecap="round"/>
<path d="M630.289 202.143C630.289 183.063 627.398 164.914 624.678 146.028C620.319 115.759 619.066 86.7724 619.066 56.2444C619.066 51.361 617.971 19.9896 624.678 33.7984C633.298 51.5447 640.432 70.9502 647.124 89.4977C655.598 112.983 663.085 134.17 676.636 155.381C680.484 161.404 691.818 179.553 702.407 173.67C706.54 171.374 706.238 157.14 706.564 153.51C708.17 135.639 706.411 117.74 703.654 100.097C698.567 67.536 697.627 34.8891 697.627 2" stroke="black" stroke-width="3" stroke-linecap="round"/>
<path d="M712.591 192.791C724.131 156.888 722.875 118.998 727.555 81.8079C729.713 64.6552 732.051 48.1159 733.582 30.8888C734.602 19.4176 737.048 14.4385 741.584 28.3948C753.77 65.8899 762.151 104.84 775.149 141.976C781.638 160.516 787.411 176.913 787.411 196.532C787.411 212.242 769.81 183.574 766.835 180.113C751.093 161.795 726.838 140.836 703.446 133.039C696.674 130.781 701.843 127.534 706.46 126.492C720.421 123.339 735.411 124.616 749.585 122.647C757.967 121.483 766.079 116.1 774.317 116.1" stroke="black" stroke-width="3" stroke-linecap="round"/>
<path d="M851.008 35.6689C849.831 25.0723 814.993 18.8345 807.883 18.8345C797.179 18.8345 788.185 20.5579 782.007 30.2653C775.362 40.7075 779.368 63.7404 787.411 72.2475C798.932 84.4327 814.217 85.7072 830.017 88.0428C847.049 90.5606 871.564 85.7092 886.443 95.6287C906.675 109.117 911.866 132.417 910.864 154.965C910.122 171.648 888.393 190.483 873.454 194.557C852.477 200.278 825.182 200.737 810.273 181.568C796.679 164.09 808.263 156.053 825.652 152.575C833.765 150.952 841.493 151.314 845.396 159.122" stroke="black" stroke-width="3" stroke-linecap="round"/>
<path d="M929.569 28.1869C909.988 26.0112 897.248 50.3295 888.002 65.5968C867.459 99.516 883.451 134.751 904.317 163.694C917.6 182.119 960.181 209.367 976.331 180.528C984.239 166.408 978.201 150.456 978.201 136.676" stroke="black" stroke-width="3" stroke-linecap="round"/>
<path d="M981.942 69.3379C989.256 70.1506 988.695 85.1028 989.84 89.9134C994.504 109.5 993.545 127.705 995.452 147.483C996.435 157.691 996.906 167.566 996.906 177.827C996.906 180.951 998.505 188.641 995.036 183.438" stroke="black" stroke-width="3" stroke-linecap="round"/>
<path d="M1021.22 189.05C1021.22 162.711 1020.09 137.083 1016.55 110.905C1014.73 97.4998 1010.29 84.1362 1010 70.585C1009.84 63.1945 1012.35 70.1209 1013.84 73.4947C1018.92 84.9112 1022.78 96.8464 1027.77 108.307C1030.88 115.443 1034.91 127.957 1041.38 132.935C1049.51 139.183 1054.12 96.9122 1054.48 92.1996C1055.47 79.1751 1054.89 65.9719 1054.89 52.9192C1054.89 46.0607 1053.09 36.3092 1055 29.6419C1055.05 29.4443 1061.99 42.1515 1062.37 43.9824C1066.15 62.0741 1067.19 80.9605 1067.99 99.3699C1069.17 126.644 1068.48 156.378 1075.47 183.023C1076.39 186.522 1080.58 194.912 1077.34 196.532" stroke="black" stroke-width="3" stroke-linecap="round"/>
<path d="M1094.17 41.2805C1094.17 54.3856 1099.84 67.91 1101.65 80.9766C1105.4 107.977 1111.48 135.499 1112.77 162.759C1113.19 171.509 1112.16 179.695 1114.75 188.114C1115.6 190.899 1118.8 198.875 1114.75 192.791" stroke="black" stroke-width="3" stroke-linecap="round"/>
<path d="M1092.3 43.1509C1115.94 43.1509 1139.67 45.0214 1163.38 45.0214" stroke="black" stroke-width="3" stroke-linecap="round"/>
<path d="M1109.14 125.453H1163.38" stroke="black" stroke-width="3" stroke-linecap="round"/>
<path d="M1193.31 198.402C1193.31 157.889 1186.47 113.925 1174.19 75.365C1171.7 67.5476 1161.46 45.5076 1166.5 51.9838C1180.04 69.3969 1189.51 89.3954 1200.06 108.618C1209.97 126.672 1222.77 145.41 1237.78 159.745C1245.37 166.981 1240.43 143.258 1239.97 141.144C1235.07 118.692 1227.1 97.2759 1220.33 75.365C1216.73 63.7396 1210.14 48.0361 1210.14 35.6689" stroke="black" stroke-width="3" stroke-linecap="round"/>
<path d="M1245.68 202.143C1262.56 202.143 1280.22 203.701 1296.91 201.104C1309.8 199.099 1311.15 197.447 1311.15 185.932C1311.15 156.038 1301.7 126.434 1294.32 97.7072C1289.12 77.5177 1279.67 57.8452 1275.61 37.5396" stroke="black" stroke-width="3" stroke-linecap="round"/>
<path d="M1240.07 82.4314C1256.39 89.3016 1278.34 87.6163 1295.56 88.4586C1310.14 89.1714 1324.62 89.9134 1339.21 89.9134" stroke="black" stroke-width="3" stroke-linecap="round"/>
<path d="M1344.95 92.7029C1336.87 97.6792 1332.36 112.145 1330.58 122.792C1327.67 140.228 1331.45 155.289 1337.35 170.997C1351.07 207.555 1413.6 219.572 1419.43 170.476C1424.77 125.529 1391.67 104.245 1361.02 95.4099C1349.14 91.9861 1339.13 86.2528 1326.69 87.0807C1320.82 87.4722 1317.8 96.6489 1313 100.199" stroke="black" stroke-width="3" stroke-linecap="round"/>
<path d="M977.913 48.3469C977.913 57.3788 985.046 46.959 981.238 43.1511C978.869 40.7824 975.779 48.2154 979.783 50.2174" stroke="black" stroke-width="3" stroke-linecap="round"/>
</svg>
